<svg width="192" height="192" viewBox="0 0 192 192" fill="none" xmlns="http://www.w3.org/2000/svg">
<path d="M154.492 0H37.4979C16.7884 0 0 16.7884 0 37.4979V154.492C0 175.201 16.7884 191.989 37.4979 191.989H154.492C175.201 191.989 191.989 175.201 191.989 154.492V37.4979C191.989 16.7884 175.201 0 154.492 0Z" fill="url(#paint0_linear_14_282)"/>
<g filter="url(#filter0_d_14_282)">
<path d="M31.2845 109.89C30.0885 109.89 29.0745 109.734 28.2425 109.422C27.4105 109.084 26.6825 108.629 26.0585 108.057L25.4345 109.5H19.0775L24.6545 83.214H31.9865L30.1925 91.677C30.8685 91.339 31.6485 91.079 32.5325 90.897C33.4165 90.715 34.2875 90.624 35.1455 90.624C37.3035 90.624 39.0455 91.131 40.3715 92.145C41.6975 93.159 42.3605 94.81 42.3605 97.098C42.3605 98.008 42.2435 99.009 42.0095 100.101C41.3075 103.403 40.0595 105.86 38.2655 107.472C36.4715 109.084 34.1445 109.89 31.2845 109.89ZM30.3095 104.586C31.4535 104.586 32.3505 104.248 33.0005 103.572C33.6505 102.87 34.1445 101.739 34.4825 100.179C34.6385 99.425 34.7165 98.801 34.7165 98.307C34.7165 97.449 34.4955 96.838 34.0535 96.474C33.6115 96.11 32.9745 95.928 32.1425 95.928C30.9725 95.928 29.9455 96.253 29.0615 96.903L27.6575 103.455C28.2815 104.209 29.1655 104.586 30.3095 104.586ZM50.5279 109.89C48.3699 109.89 46.6539 109.409 45.3799 108.447C44.1319 107.459 43.5079 105.899 43.5079 103.767C43.5079 103.325 43.5339 102.87 43.5859 102.402C43.6379 101.934 43.7159 101.44 43.8199 100.92C44.2879 98.814 45.0679 96.994 46.1599 95.46C47.2519 93.9 48.5649 92.704 50.0989 91.872C51.6329 91.04 53.2839 90.624 55.0519 90.624C56.0399 90.624 56.8979 90.754 57.6259 91.014C58.3539 91.248 58.9259 91.547 59.3419 91.911L59.5369 91.014H66.8689L62.9689 109.5H56.6119L56.5339 108.057C55.6759 108.629 54.7659 109.084 53.8039 109.422C52.8419 109.734 51.7499 109.89 50.5279 109.89ZM53.7649 104.586C54.3369 104.586 54.8959 104.495 55.4419 104.313C55.9879 104.105 56.4689 103.819 56.8849 103.455L58.2889 96.903C57.7169 96.253 56.8849 95.928 55.7929 95.928C53.5309 95.928 52.0359 97.605 51.3079 100.959C51.1519 101.609 51.0739 102.168 51.0739 102.636C51.0739 103.364 51.2819 103.871 51.6979 104.157C52.1139 104.443 52.8029 104.586 53.7649 104.586ZM94.6695 109.89C92.5115 109.89 90.7955 109.409 89.5215 108.447C88.2735 107.459 87.6495 105.899 87.6495 103.767C87.6495 103.325 87.6755 102.87 87.7275 102.402C87.7795 101.934 87.8575 101.44 87.9615 100.92C88.4295 98.814 89.2095 96.994 90.3015 95.46C91.3935 93.9 92.7065 92.704 94.2405 91.872C95.7745 91.04 97.4255 90.624 99.1935 90.624C100.182 90.624 101.04 90.754 101.768 91.014C102.496 91.248 103.068 91.547 103.484 91.911L103.679 91.014H111.011L107.111 109.5H100.754L100.676 108.057C99.8175 108.629 98.9075 109.084 97.9455 109.422C96.9835 109.734 95.8915 109.89 94.6695 109.89ZM97.9065 104.586C98.4785 104.586 99.0375 104.495 99.5835 104.313C100.13 104.105 100.611 103.819 101.027 103.455L102.431 96.903C101.859 96.253 101.027 95.928 99.9345 95.928C97.6725 95.928 96.1775 97.605 95.4495 100.959C95.2935 101.609 95.2155 102.168 95.2155 102.636C95.2155 103.364 95.4235 103.871 95.8395 104.157C96.2555 104.443 96.9445 104.586 97.9065 104.586ZM110.637 109.5L114.537 91.014H121.401L121.323 92.418C122.129 91.95 123.143 91.534 124.365 91.17C125.587 90.806 126.861 90.624 128.187 90.624C130.085 90.624 131.463 91.027 132.321 91.833C133.205 92.613 133.647 93.77 133.647 95.304C133.647 95.642 133.621 96.006 133.569 96.396C133.543 96.786 133.478 97.202 133.374 97.644L130.878 109.5H123.546L125.886 98.385C125.964 98.073 126.003 97.787 126.003 97.527C126.003 96.539 125.379 96.045 124.131 96.045C123.455 96.045 122.792 96.175 122.142 96.435C121.518 96.695 120.985 97.007 120.543 97.371L117.969 109.5H110.637ZM133.47 109.5L134.289 105.483L143.961 96.63H136.473L137.643 91.014H154.452L153.594 95.148L144.195 103.884H151.995L150.825 109.5H133.47ZM160.558 109.89C158.4 109.89 156.684 109.409 155.41 108.447C154.162 107.459 153.538 105.899 153.538 103.767C153.538 103.325 153.564 102.87 153.616 102.402C153.668 101.934 153.746 101.44 153.85 100.92C154.318 98.814 155.098 96.994 156.19 95.46C157.282 93.9 158.595 92.704 160.129 91.872C161.663 91.04 163.314 90.624 165.082 90.624C166.07 90.624 166.928 90.754 167.656 91.014C168.384 91.248 168.956 91.547 169.372 91.911L169.567 91.014H176.899L172.999 109.5H166.642L166.564 108.057C165.706 108.629 164.796 109.084 163.834 109.422C162.872 109.734 161.78 109.89 160.558 109.89ZM163.795 104.586C164.367 104.586 164.926 104.495 165.472 104.313C166.018 104.105 166.499 103.819 166.915 103.455L168.319 96.903C167.747 96.253 166.915 95.928 165.823 95.928C163.561 95.928 162.066 97.605 161.338 100.959C161.182 101.609 161.104 102.168 161.104 102.636C161.104 103.364 161.312 103.871 161.728 104.157C162.144 104.443 162.833 104.586 163.795 104.586Z" fill="white"/>
</g>
<g filter="url(#filter1_d_14_282)">
<path d="M76.5 73.5C72.3584 73.5 69.0004 75.6985 69.0004 78.4099C69.0004 81.1208 72.358 83.3188 76.5 83.3188C80.6428 83.3188 84 81.1208 84 78.4099C84 75.6985 80.6424 73.5 76.5 73.5ZM69.4694 83.3188C69.1641 83.8533 69.0004 84.3508 69.0004 84.9552C69.0004 87.6666 72.358 89.8641 76.5 89.8641C80.6428 89.8641 84 87.6666 84 84.9552C84 84.3646 83.8237 83.8438 83.5314 83.3188C82.5126 85.2384 79.7796 86.6938 76.5004 86.6938C73.2374 86.6938 70.5011 85.223 69.4694 83.3188ZM69.4694 89.8641C69.1637 90.3981 69.0004 90.8956 69.0004 91.5C69.0004 94.2114 72.358 96.4094 76.5 96.4094C80.6428 96.4094 84 94.2114 84 91.5C84 90.9093 83.8237 90.3886 83.5314 89.8635C82.5126 91.7832 79.7796 93.2386 76.5004 93.2386C73.2374 93.2386 70.5011 91.7689 69.4694 89.8641ZM69.4694 96.4099C69.1641 96.9445 69.0004 97.442 69.0004 98.0458C69.0004 100.757 72.358 102.955 76.5 102.955C80.6428 102.955 84 100.757 84 98.0458C84 97.4552 83.8237 96.9344 83.5314 96.4099C82.5126 98.329 79.7796 99.7844 76.5004 99.7844C73.2374 99.7844 70.5011 98.3142 69.4694 96.4099ZM69.4686 102.955C69.1637 103.489 69 103.987 69 104.591C69 107.302 72.3576 109.5 76.4996 109.5C80.6424 109.5 83.9996 107.302 83.9996 104.591C83.9996 104 83.8233 103.48 83.531 102.955C82.5122 104.874 79.7792 106.33 76.5 106.33C73.237 106.33 70.5003 104.858 69.4686 102.955Z" fill="#FFD000"/>
</g>
<path fill-rule="evenodd" clip-rule="evenodd" d="M86.1053 69.0617C85.9765 69.0359 85.8439 69.0357 85.7152 69.0614C85.5864 69.087 85.4639 69.138 85.3549 69.2111C85.2458 69.2843 85.1524 69.3783 85.0798 69.4878C85.0073 69.5973 84.9572 69.7199 84.9323 69.8489C84.7879 70.5284 84.4329 70.7746 83.7603 70.6316C82.4427 70.3277 82.0181 72.3252 83.3444 72.588C83.992 72.7257 84.2683 72.9726 84.1065 73.7341C83.8026 75.0518 85.7999 75.4763 86.0628 74.15C86.2101 73.4568 86.5867 73.2772 87.2296 73.4139C88.5472 73.7177 88.9723 71.718 87.6455 71.4574C86.7722 71.2718 86.7854 70.7504 86.8886 70.2647C86.9176 70.1342 86.9202 69.9994 86.8964 69.8678C86.8726 69.7363 86.8228 69.6107 86.7498 69.4986C86.6768 69.3866 86.5823 69.2902 86.4716 69.2152C86.3609 69.1402 86.2364 69.088 86.1053 69.0617Z" fill="#FFD000"/>
<defs>
<filter id="filter0_d_14_282" x="13.0775" y="83.214" width="169.822" height="38.676" filterUnits="userSpaceOnUse" color-interpolation-filters="sRGB">
<feFlood flood-opacity="0" result="BackgroundImageFix"/>
<feColorMatrix in="SourceAlpha" type="matrix" values="0 0 0 0 0 0 0 0 0 0 0 0 0 0 0 0 0 0 127 0" result="hardAlpha"/>
<feOffset dy="6"/>
<feGaussianBlur stdDeviation="3"/>
<feComposite in2="hardAlpha" operator="out"/>
<feColorMatrix type="matrix" values="0 0 0 0 0 0 0 0 0 0 0 0 0 0 0 0 0 0 0.25 0"/>
<feBlend mode="normal" in2="BackgroundImageFix" result="effect1_dropShadow_14_282"/>
<feBlend mode="normal" in="SourceGraphic" in2="effect1_dropShadow_14_282" result="shape"/>
</filter>
<filter id="filter1_d_14_282" x="63" y="73.5" width="27" height="48" filterUnits="userSpaceOnUse" color-interpolation-filters="sRGB">
<feFlood flood-opacity="0" result="BackgroundImageFix"/>
<feColorMatrix in="SourceAlpha" type="matrix" values="0 0 0 0 0 0 0 0 0 0 0 0 0 0 0 0 0 0 127 0" result="hardAlpha"/>
<feOffset dy="6"/>
<feGaussianBlur stdDeviation="3"/>
<feComposite in2="hardAlpha" operator="out"/>
<feColorMatrix type="matrix" values="0 0 0 0 0 0 0 0 0 0 0 0 0 0 0 0 0 0 0.25 0"/>
<feBlend mode="normal" in2="BackgroundImageFix" result="effect1_dropShadow_14_282"/>
<feBlend mode="normal" in="SourceGraphic" in2="effect1_dropShadow_14_282" result="shape"/>
</filter>
<linearGradient id="paint0_linear_14_282" x1="0" y1="0" x2="19198.9" y2="19198.9" gradientUnits="userSpaceOnUse">
<stop stop-color="#6366F1"/>
<stop offset="1" stop-color="#8B5CF6"/>
</linearGradient>
</defs>
</svg>
